<svg version="1.1" id="Layer_1" xmlns="http://www.w3.org/2000/svg" xmlns:xlink="http://www.w3.org/1999/xlink" x="0px" y="0px"
	 width="100%" viewBox="0 0 213 236" enable-background="new 0 0 213 236" xml:space="preserve">
<path fill="#FDFEFE" opacity="1.000000" stroke="none" 
	d="
M214.000000,177.000000 
	C214.000000,196.973694 214.000000,216.947388 214.000000,236.960541 
	C143.119705,236.960541 72.239380,236.960541 1.000000,236.960541 
	C1.000000,217.313889 1.000000,197.625610 1.222127,177.374237 
	C1.713989,176.615707 1.903593,176.360672 2.343236,175.931030 
	C12.909599,169.972290 23.199503,164.218552 33.317650,158.177155 
	C34.663582,157.373505 35.889877,155.115250 35.901958,153.520996 
	C36.069572,131.406174 36.050537,109.289467 35.931713,87.174011 
	C35.924225,85.780190 35.096600,83.745552 34.005970,83.102898 
	C23.434605,76.873657 12.725372,70.878387 1.938254,64.613678 
	C1.602407,64.164032 1.328733,64.027031 1.000000,64.000000 
	C1.000000,43.027126 1.000000,22.054253 1.000000,1.040690 
	C71.881142,1.040690 142.762314,1.040690 214.000000,1.040690 
	C214.000000,21.686195 214.000000,42.374439 213.774048,63.592876 
	C213.257111,64.275993 213.055908,64.507103 212.596466,64.899544 
	C202.167343,70.761314 192.024384,76.437202 182.072052,82.429665 
	C180.584381,83.325424 179.129913,85.699219 179.114807,87.402191 
	C178.918335,109.521538 178.949432,131.643417 179.069656,153.763855 
	C179.077225,155.153839 179.920868,157.181808 181.014709,157.823700 
	C191.593887,164.031555 202.309937,170.006119 213.099182,176.260742 
	C213.408066,176.748825 213.670898,176.924103 214.000000,177.000000 
M45.087757,90.188835 
	C44.961472,90.664314 44.725395,91.139633 44.724716,91.615295 
	C44.696762,111.196999 44.672050,130.778793 44.732269,150.360306 
	C44.735348,151.361252 45.490833,152.359863 46.322563,153.871140 
	C64.847107,163.999329 83.371643,174.127502 102.503990,184.725662 
	C102.708870,182.295120 103.098244,179.863907 103.089211,177.434158 
	C103.021896,159.319443 102.875679,141.205032 102.506721,122.467377 
	C83.667480,111.661743 64.828247,100.856110 45.087757,90.188835 
M169.867615,152.839890 
	C170.006577,152.369064 170.266312,151.898453 170.267090,151.427399 
	C170.299438,131.849426 170.325653,112.271355 170.265076,92.693573 
	C170.262344,91.811226 169.447540,90.931396 168.320358,90.147453 
	C155.403290,97.622795 142.464935,105.061684 129.578781,112.589920 
	C123.749374,115.995529 118.023712,119.578697 111.937691,123.960678 
	C111.918877,143.042969 111.881279,162.125290 111.933434,181.207397 
	C111.936218,182.224762 112.695900,183.240082 113.807304,184.105179 
	C132.239716,173.856476 150.672119,163.607788 169.867615,152.839890 
M120.491241,107.993134 
	C135.661499,99.241463 150.831772,90.489784 166.452759,81.478088 
	C147.103180,70.822075 128.362564,60.455891 109.536346,50.247601 
	C108.415581,49.639889 106.367592,49.828259 105.161461,50.446632 
	C99.253166,53.475769 93.477119,56.763866 87.667030,59.983345 
	C74.841934,67.089973 62.024456,74.210335 49.059738,81.405083 
	C49.669075,81.940018 49.888790,82.206474 50.168941,82.368309 
	C65.130890,91.011230 80.525154,98.999550 94.909142,108.515137 
	C103.985504,114.519501 111.566437,115.794563 120.491241,107.993134 
M186.958969,43.523472 
	C162.260208,29.609325 137.561447,15.695178 111.941902,1.262298 
	C111.941902,14.924621 111.843102,27.369856 112.088295,39.808311 
	C112.114014,41.112732 113.926476,42.813766 115.321938,43.593410 
	C131.586884,52.680592 148.227829,61.138268 164.129471,70.814011 
	C172.141129,75.688904 178.722504,76.776794 185.820023,70.227089 
	C186.528625,69.573181 187.586609,69.310234 188.449768,68.809509 
	C195.272202,64.851746 202.086685,60.880291 209.596115,56.510036 
	C201.687103,51.967804 194.645966,47.924007 186.958969,43.523472 
M6.697897,57.088665 
	C16.900255,63.028072 27.042545,69.076126 37.371357,74.786804 
	C38.876747,75.619125 41.649872,75.538521 43.199242,74.701279 
	C62.077675,64.499916 80.811073,54.030514 99.657410,43.768970 
	C102.195877,42.386814 103.177811,40.805672 103.135109,37.913715 
	C102.977676,27.253187 103.087769,16.588882 103.052261,5.926147 
	C103.048195,4.705722 102.760849,3.486241 102.529900,1.680178 
	C100.092216,2.950186 98.177094,3.878250 96.327377,4.922207 
	C73.292328,17.922934 50.242332,30.897541 27.253435,43.979477 
	C20.206463,47.989586 13.333627,52.305710 6.697897,57.088665 
M73.394707,220.131332 
	C83.014595,225.497162 92.634483,230.862991 103.066139,236.681610 
	C103.066139,222.743881 103.156883,210.094925 102.941574,197.451172 
	C102.917000,196.008270 101.510292,193.998764 100.182907,193.257416 
	C82.457718,183.357651 64.673241,173.560654 46.763901,163.999603 
	C45.112404,163.117920 42.151562,163.330429 40.407631,164.223694 
	C34.047764,167.481262 27.938160,171.229279 21.750164,174.819885 
	C17.406818,177.340118 13.089351,179.904922 7.969524,182.914719 
	C30.279799,195.626678 51.506107,207.721024 73.394707,220.131332 
M127.009796,186.489960 
	C123.216080,188.571182 119.488907,190.788452 115.606110,192.687546 
	C112.847588,194.036743 111.808952,195.895920 111.864586,198.984970 
	C112.035614,208.481201 111.927017,217.982452 111.927086,227.481750 
	C111.927101,230.213501 111.927086,232.945251 111.927086,236.812378 
	C144.082214,218.618195 175.103821,201.065414 206.701721,183.186539 
	C205.127899,181.985870 204.311737,181.214005 203.366165,180.665054 
	C194.444824,175.485870 185.363434,170.565048 176.626419,165.093521 
	C172.647476,162.601746 169.525375,162.851105 165.637756,165.070251 
	C153.066223,172.246353 140.329010,179.132187 127.009796,186.489960 
z"/>
<path fill="#9ADAFB" opacity="1.000000" stroke="none" 
	d="
M214.000000,176.531342 
	C213.670898,176.924103 213.408066,176.748825 213.104065,175.787628 
	C212.979263,138.339523 212.961884,101.577957 212.944489,64.816391 
	C213.055908,64.507103 213.257111,64.275993 213.774048,64.061539 
	C214.000000,101.354225 214.000000,138.708450 214.000000,176.531342 
z"/>
<path fill="#9ADAFB" opacity="1.000000" stroke="none" 
	d="
M2.013068,176.046066 
	C1.903593,176.360672 1.713989,176.615707 1.222127,176.905579 
	C1.000000,139.645767 1.000000,102.291542 1.000000,64.468658 
	C1.328733,64.027031 1.602407,64.164032 1.919165,65.100204 
	C2.015894,102.541618 2.014481,139.293839 2.013068,176.046066 
z"/>
<path fill="#1C78C0" opacity="1.000000" stroke="none" 
	d="
M120.165527,108.161469 
	C111.566437,115.794563 103.985504,114.519501 94.909142,108.515137 
	C80.525154,98.999550 65.130890,91.011230 50.168941,82.368309 
	C49.888790,82.206474 49.669075,81.940018 49.059738,81.405083 
	C62.024456,74.210335 74.841934,67.089973 87.667030,59.983345 
	C93.477119,56.763866 99.253166,53.475769 105.161461,50.446632 
	C106.367592,49.828259 108.415581,49.639889 109.536346,50.247601 
	C128.362564,60.455891 147.103180,70.822075 166.452759,81.478088 
	C150.831772,90.489784 135.661499,99.241463 120.165527,108.161469 
z"/>
<path fill="#1C78C0" opacity="1.000000" stroke="none" 
	d="
M112.250977,123.081299 
	C118.023712,119.578697 123.749374,115.995529 129.578781,112.589920 
	C142.464935,105.061684 155.403290,97.622795 168.661835,90.564178 
	C169.037033,111.773636 169.070786,132.566360 169.104523,153.359085 
	C150.672119,163.607788 132.239716,173.856476 113.430077,183.694931 
	C113.035439,164.982346 113.038338,146.679932 112.968117,128.377792 
	C112.961334,126.611404 112.500854,124.846756 112.250977,123.081299 
z"/>
<path fill="#1C78C0" opacity="1.000000" stroke="none" 
	d="
M101.896187,184.255692 
	C83.371643,174.127502 64.847107,163.999329 46.139931,153.122223 
	C45.967865,131.599014 45.978436,110.824745 45.989006,90.050468 
	C64.828247,100.856110 83.667480,111.661743 102.384483,123.101479 
	C102.174629,125.544868 102.015587,127.353943 102.010414,129.163467 
	C101.957947,147.527512 101.930588,165.891602 101.896187,184.255692 
z"/>
<path fill="#8ED6FB" opacity="1.000000" stroke="none" 
	d="
M187.281906,43.701839 
	C194.645966,47.924007 201.687103,51.967804 209.596115,56.510036 
	C202.086685,60.880291 195.272202,64.851746 188.449768,68.809509 
	C187.586609,69.310234 186.528625,69.573181 185.820023,70.227089 
	C178.722504,76.776794 172.141129,75.688904 164.129471,70.814011 
	C148.227829,61.138268 131.586884,52.680592 115.321938,43.593410 
	C113.926476,42.813766 112.114014,41.112732 112.088295,39.808311 
	C111.843102,27.369856 111.941902,14.924621 111.941902,1.262298 
	C137.561447,15.695178 162.260208,29.609325 187.281906,43.701839 
z"/>
<path fill="#8ED6FB" opacity="1.000000" stroke="none" 
	d="
M6.539473,56.785179 
	C13.333627,52.305710 20.206463,47.989586 27.253435,43.979477 
	C50.242332,30.897541 73.292328,17.922934 96.327377,4.922207 
	C98.177094,3.878250 100.092216,2.950186 102.529900,1.680178 
	C102.760849,3.486241 103.048195,4.705722 103.052261,5.926147 
	C103.087769,16.588882 102.977676,27.253187 103.135109,37.913715 
	C103.177811,40.805672 102.195877,42.386814 99.657410,43.768970 
	C80.811073,54.030514 62.077675,64.499916 43.199242,74.701279 
	C41.649872,75.538521 38.876747,75.619125 37.371357,74.786804 
	C27.042545,69.076126 16.900255,63.028072 6.539473,56.785179 
z"/>
<path fill="#8ED6FB" opacity="1.000000" stroke="none" 
	d="
M73.063560,219.973358 
	C51.506107,207.721024 30.279799,195.626678 7.969524,182.914719 
	C13.089351,179.904922 17.406818,177.340118 21.750164,174.819885 
	C27.938160,171.229279 34.047764,167.481262 40.407631,164.223694 
	C42.151562,163.330429 45.112404,163.117920 46.763901,163.999603 
	C64.673241,173.560654 82.457718,183.357651 100.182907,193.257416 
	C101.510292,193.998764 102.917000,196.008270 102.941574,197.451172 
	C103.156883,210.094925 103.066139,222.743881 103.066139,236.681610 
	C92.634483,230.862991 83.014595,225.497162 73.063560,219.973358 
z"/>
<path fill="#8ED6FB" opacity="1.000000" stroke="none" 
	d="
M127.332703,186.309906 
	C140.329010,179.132187 153.066223,172.246353 165.637756,165.070251 
	C169.525375,162.851105 172.647476,162.601746 176.626419,165.093521 
	C185.363434,170.565048 194.444824,175.485870 203.366165,180.665054 
	C204.311737,181.214005 205.127899,181.985870 206.701721,183.186539 
	C175.103821,201.065414 144.082214,218.618195 111.927086,236.812378 
	C111.927086,232.945251 111.927101,230.213501 111.927086,227.481750 
	C111.927017,217.982452 112.035614,208.481201 111.864586,198.984970 
	C111.808952,195.895920 112.847588,194.036743 115.606110,192.687546 
	C119.488907,190.788452 123.216080,188.571182 127.332703,186.309906 
z"/>
<path fill="#8ED6FB" opacity="1.000000" stroke="none" 
	d="
M212.596466,64.899544 
	C212.961884,101.577957 212.979263,138.339523 212.991760,175.574219 
	C202.309937,170.006119 191.593887,164.031555 181.014709,157.823700 
	C179.920868,157.181808 179.077225,155.153839 179.069656,153.763855 
	C178.949432,131.643417 178.918335,109.521538 179.114807,87.402191 
	C179.129913,85.699219 180.584381,83.325424 182.072052,82.429665 
	C192.024384,76.437202 202.167343,70.761314 212.596466,64.899544 
z"/>
<path fill="#8ED6FB" opacity="1.000000" stroke="none" 
	d="
M2.343236,175.931030 
	C2.014481,139.293839 2.015894,102.541618 2.036397,65.302872 
	C12.725372,70.878387 23.434605,76.873657 34.005970,83.102898 
	C35.096600,83.745552 35.924225,85.780190 35.931713,87.174011 
	C36.050537,109.289467 36.069572,131.406174 35.901958,153.520996 
	C35.889877,155.115250 34.663582,157.373505 33.317650,158.177155 
	C23.199503,164.218552 12.909599,169.972290 2.343236,175.931030 
z"/>
<path fill="#0072BE" opacity="1.000000" stroke="none" 
	d="
M45.538383,90.119652 
	C45.978436,110.824745 45.967865,131.599014 45.926651,152.866425 
	C45.490833,152.359863 44.735348,151.361252 44.732269,150.360306 
	C44.672050,130.778793 44.696762,111.196999 44.724716,91.615295 
	C44.725395,91.139633 44.961472,90.664314 45.538383,90.119652 
z"/>
<path fill="#0072BE" opacity="1.000000" stroke="none" 
	d="
M169.486069,153.099487 
	C169.070786,132.566360 169.037033,111.773636 169.007141,90.515656 
	C169.447540,90.931396 170.262344,91.811226 170.265076,92.693573 
	C170.325653,112.271355 170.299438,131.849426 170.267090,151.427399 
	C170.266312,151.898453 170.006577,152.369064 169.486069,153.099487 
z"/>
<path fill="#006FBC" opacity="1.000000" stroke="none" 
	d="
M102.200089,184.490677 
	C101.930588,165.891602 101.957947,147.527512 102.010414,129.163467 
	C102.015587,127.353943 102.174629,125.544868 102.508224,123.413048 
	C102.875679,141.205032 103.021896,159.319443 103.089211,177.434158 
	C103.098244,179.863907 102.708870,182.295120 102.200089,184.490677 
z"/>
<path fill="#006FBC" opacity="1.000000" stroke="none" 
	d="
M112.094330,123.520988 
	C112.500854,124.846756 112.961334,126.611404 112.968117,128.377792 
	C113.038338,146.679932 113.035439,164.982346 113.078033,183.770508 
	C112.695900,183.240082 111.936218,182.224762 111.933434,181.207397 
	C111.881279,162.125290 111.918877,143.042969 112.094330,123.520988 
z"/>
</svg>